<?xml version="1.0" encoding="UTF-8"?> <svg xmlns="http://www.w3.org/2000/svg" id="uuid-732495d3-c276-4a3e-b92b-bc3e59573f2d" viewBox="0 0 600 425"><path d="M58.6114307,34.8673764l43.0285997.0000062-.0000106,158.5793346-43.0285997-.0000062.0000106-158.5793346Z" style="fill:#0c233c;"></path><path d="M132.6563313,34.8673871l33.8564333.0000049,44.778496,68.3685938,42.155629-68.3685813,33.8564333.0000049-.0000106,158.5793346-40.4096737-.0000058.000006-89.5550282-36.2581069,57.2272833-37.5695375-55.9178309-.0000059,88.2455651-40.4096737-.0000058.0000106-158.5793346Z" style="fill:#0c233c;"></path><path d="M349.5472533,72.6561919l-41.5018804-.000006.0000025-37.7887735,124.5056412.000018-.0000025,37.7887735-40.8481364-.0000059-.0000081,120.7905612-42.1556244-.0000061.0000081-120.7905612Z" style="fill:#0c233c;"></path><path d="M88.080675,273.9348286l-15.4998112-.0000022-46.2697814,120.8273736-.3422388.8997275,14.0272841.000002,13.4337725-36.1539164,53.4784013.0000077,13.7642982,36.1539203,14.0272841.000002-46.4516921-121.3083225-.1675168-.4187921ZM102.5834858,347.5692927l-44.669357-.0000065,22.2554271-58.0247706,22.4139299,58.024777Z" style="fill:#0c233c;"></path><path d="M187.5370425,327.216008c-16.3166805-6.495333-28.1050026-11.1885083-28.1050017-23.5973638.0000008-12.0413992,12.2269296-19.2374168,24.0476746-19.2374151,13.0329905.0000019,25.4769698,6.3152087,34.139211,17.3262905l1.4716263,1.87781-2.2911969-18.5277239-.0657458-.1945357-.101771-.1071748c-8.9486411-9.44579-22.6507981-12.8114396-32.4892605-12.811441-21.4817836-.0000031-38.3091217,14.1317517-38.3091229,32.1722354-.0000006,8.3479229,2.9216369,14.8810804,9.1936112,20.5586415,5.4424958,4.9273377,13.5301367,9.3142989,26.2226894,14.226327,14.6063876,5.6406366,25.7795806,10.9966742,25.7795797,24.0891065-.0000004,6.1485888-2.6136238,11.8018317-7.3581334,15.9186026-4.6913725,4.0663357-11.0317951,6.3061971-17.8513518,6.3061962-13.7751082-.000002-26.9954289-7.7535122-36.2700971-21.271943l-1.2095435-1.7697346-.0000012,18.1323478.0396276.210747.0927647.1224855c7.6796559,10.1761993,22.8219172,17.0128702,37.6795805,17.0128724,10.4067587.0000015,20.1191334-3.5043415,27.346675-9.8681794,7.3905554-6.5052365,11.4604948-15.4277596,11.4604954-25.1248236.0000014-20.8198224-15.8096253-28.6462838-33.4223098-35.4433275Z" style="fill:#0c233c;"></path><path d="M279.5722373,327.2160213c-16.3157799-6.4944324-28.1050026-11.1885083-28.1050017-23.5973638.0000008-12.0413992,12.2269296-19.2374168,24.0476746-19.2374151,13.0329905.0000019,25.4769698,6.3152087,34.139211,17.3262905l1.472527,1.8742075-2.2929981-18.5304258-.0666465-.1909332-.0990691-.1044729c-8.9495417-9.44579-22.6507981-12.8114396-32.4892605-12.811441-21.4817836-.0000031-38.3091217,14.1317517-38.3091229,32.1722354-.0000006,8.3479229,2.9207362,14.8801797,9.1927106,20.5586415,5.4433965,4.9273377,13.5310373,9.3142989,26.2226894,14.226327,14.6063876,5.6406366,25.7795806,10.9966742,25.7795797,24.0891065-.0000004,6.1485888-2.6127232,11.8018317-7.3572328,15.9186026-4.6922731,4.0663357-11.0326958,6.3061971-17.8513518,6.3061962-13.7751082-.000002-26.9954289-7.7535122-36.2700971-21.271943l-1.2095435-1.7697346-.0000012,18.1323478.0396276.2098464.0927647.1233861c7.6787553,10.1761993,22.820116,17.0128702,37.6786798,17.0128724,10.4067587.0000015,20.1191334-3.5043415,27.3475757-9.8681794,7.3896547-6.5043359,11.4595941-15.4277596,11.4595948-25.1248236.0000014-20.8198224-15.8096253-28.6462838-33.4223098-35.4433275Z" style="fill:#0c233c;"></path><rect x="339.6918704" y="273.934866" width="13.9300162" height="121.7271079" style="fill:#0c233c;"></rect><path d="M420.5286548,327.2160417c-16.3157799-6.4944324-28.1050026-11.1885083-28.1050017-23.5973638.0000008-12.0413992,12.2269296-19.2374168,24.0476746-19.2374151,13.0329905.0000019,25.4769698,6.3152087,34.139211,17.3262905l1.4716263,1.87781-2.2929981-18.5340283-.0666465-.1909332-.0990691-.1044729c-8.9486411-9.44579-22.6507981-12.8114396-32.4892605-12.811441-21.4817836-.0000031-38.3091217,14.1317517-38.3091229,32.1722354-.0000006,8.3479229,2.9216369,14.8810804,9.1936112,20.5586415,5.4424958,4.9273377,13.5301367,9.3142989,26.2226894,14.226327,14.6063876,5.6406366,25.7795806,10.9966742,25.7795797,24.0891065-.0000004,6.1485888-2.6136238,11.8018317-7.3581334,15.9186026-4.6913725,4.0663357-11.0317951,6.3061971-17.8513518,6.3061962-13.7751082-.000002-26.9954289-7.7535122-36.2700971-21.271943l-1.2095435-1.7697346-.0000012,18.1323478.0396276.210747.0927647.1224855c7.6796559,10.1761993,22.8219172,17.0128702,37.6795805,17.0128724,10.4067587.0000015,20.1191334-3.5043415,27.346675-9.8681794,7.3905554-6.5052365,11.4604948-15.4277596,11.4604954-25.1248236.0000014-20.8198224-15.8096253-28.6453832-33.4223098-35.4433275Z" style="fill:#0c233c;"></path><polygon points="463.2337452 273.9348828 463.2337444 286.3716578 501.0457184 286.3716633 501.0457111 395.6619962 514.8100117 395.6619982 514.810019 286.3716653 552.6219929 286.3716707 552.6219938 273.9348958 463.2337452 273.9348828" style="fill:#0c233c;"></polygon><path d="M566.4638425,238.221336l-529.4319021-.0000765c-2.374019-.0000003-4.2977247-1.9237065-4.2977245-4.2977255.0000002-2.374019,1.9237062-4.2977246,4.2977251-4.2977243l529.4319021.0000765c2.374019.0000003,4.2977247,1.9237065,4.2977245,4.2977255-.0000002,2.374019-1.9237062,4.2977246-4.2977251,4.2977243Z" style="fill:#7b3;"></path><path d="M507.9253399,21.0565461c-34.6406666-.0002405-62.7225336,28.0809195-62.7224408,62.7210863.0000928,34.6401668,47.0421552,108.1499017,62.7227626,125.4429319,15.6805147-17.2928125,62.7223656-90.8018943,62.7222728-125.4420612-.0000928-34.6401668-28.081928-62.7217167-62.7225946-62.7219571ZM507.9257742,115.139649c-17.320151-.0001202-31.3611597-14.040804-31.3612061-31.3608874-.0000464-17.3199011,14.0408871-31.3605722,31.3610381-31.360452,17.3203333.0001202,31.3611597,14.0409863,31.3612061,31.3608874.0000464,17.3200834-14.0407048,31.3605722-31.3610381,31.360452Z" style="fill:#7b3;"></path></svg> 