<?xml version="1.0" encoding="UTF-8"?> <svg xmlns="http://www.w3.org/2000/svg" id="uuid-0e3049cf-941b-4a47-8d1e-d4b903f6702b" viewBox="0 0 330 165"><polygon points="7.4262819 43.1540527 7.4262819 119.9652786 21.3776951 119.9652786 21.3776951 43.1540527 7.4262819 43.1540527 7.4262819 43.1540527" style="fill:#1c7dc1; fill-rule:evenodd;"></polygon><polygon points="188.3727417 42.5516281 188.3727417 119.362854 202.3241577 119.362854 202.3241577 42.5516281 188.3727417 42.5516281 188.3727417 42.5516281" style="fill:#1c7dc1; fill-rule:evenodd;"></polygon><path d="M253.4070282,42.5516281c-10.0658264,0-19.6348419,3.7842903-26.9410248,10.5478249l-7.2958374-9.1933479h-5.4486237v116.6926498h13.9520874v-48.1509705c7.1442413,6.0947952,16.2198334,9.4743195,25.7333832,9.4743195,21.9164734,0,39.6854858-17.7684708,39.6854858-39.6851349,0-21.9168701-17.7690125-39.6853409-39.6854858-39.6853409h.0000153ZM253.4070282,56.5613708c14.1806488,0,25.6753387,11.4947433,25.6753387,25.6755981,0,14.1807175-11.4946899,25.6760101-25.6753235,25.6760101-14.1809235,0-25.6764221-11.4952927-25.6764221-25.6760101,0-14.1808548,11.4954987-25.6755981,25.6764221-25.6755981h-.0000153Z" style="fill:#1c7dc1; fill-rule:evenodd;"></path><path d="M106.0176926,43.0262413v45.6466866c0,15.2853546,11.2619095,28.4296875,26.3533859,30.7907028l3.8620605.6042938v-13.9958725l-2.641098-.5683289c-7.8754501-1.6951294-13.6227875-8.7636337-13.6227875-16.8307953v-31.6947327h16.2638855v-13.9519577h-16.2638931l-8.3809662-14.2661705h-5.5705872v14.2661743Z" style="fill:#1c7dc1; fill-rule:evenodd;"></path><path d="M63.6885338,55.9012299h-.0005455c-9.4412117,0-17.2134628,7.7719116-17.2134628,17.2131958v46.850853h-13.952095v-46.850853c0-.5683289.016861-1.1328506.0473137-1.6935654l-.0473137.0707016v-28.3375015h5.4482193l5.1999474,6.5523148c5.4919968-4.8230553,12.6783829-7.7571602,20.5179367-7.7571602,17.1415367,0,31.1662331,14.0230675,31.1662331,31.1652184v46.850853h-13.952095v-46.850853c0-9.4412804-7.772522-17.213192-17.2136002-17.213192h-.0005455l.0000076-.0000114Z" style="fill:#1c7dc1; fill-rule:evenodd;"></path><path d="M177.8859863,55.9012299h-.0005493c-9.4409332,0-17.2137299,7.7719116-17.2137299,17.2131958v46.850853h-13.951828v-46.850853c0-.5683289.0169983-1.1328506.0473175-1.6935654l-.0473175.0707016v-28.3375015h5.4480896l5.2000885,6.5523148c5.4921417-4.8230553,12.6783752-7.7571602,20.5179291-7.7571602v13.9520264h0v-.0000114Z" style="fill:#1c7dc1; fill-rule:evenodd;"></path><path d="M195.0527802,5.3768549c-5.9095154,0-10.6995239,4.7900133-10.6995239,10.7056341,0,5.9095078,8.0261688,18.4504128,10.6995239,21.3990402,2.6733551-2.9486275,10.6995239-15.4895325,10.6995239-21.3990421,0-5.9156227-4.7900085-10.7056351-10.6995239-10.7056351M196.2762756,21.294611c-3.9029694.8625622-7.304306-2.5326557-6.4417419-6.4417419.4404755-1.9637146,2.0249023-3.5542555,3.9947357-3.988616,3.9029694-.8625612,7.304306,2.5387707,6.4356232,6.4417429-.4343414,1.9637146-2.0187836,3.5542793-3.9886169,3.9886169" style="fill:#1c7dc1;"></path><circle cx="14.5619802" cy="14.1572332" r="7.1910715" style="fill:#1c7dc1;"></circle><path d="M56.8234634,130.9800568c-4.6394272,0-8.4357147,3.805542-8.4357147,8.4430084,0,4.3573761,2.9270325,7.4703369,7.1567078,8.1742401,1.0650482.1770935,2.140873.2209167,3.2076416.3682861.8362083.115387,1.7943268.308136,2.4386864.8935699.6564064.5963898.8471375,1.4395294.8471375,2.2970428,0,1.8069-1.4847717,3.2715759-3.2874451,3.2715759h-8.8180885v5.1462708h8.8180923c4.6394272,0,8.4432526-3.7808838,8.4432526-8.4252319,0-3.8247223-2.4391403-7.0420074-6.1655922-7.9732971-1.2422676-.3105927-2.4979973-.3779297-3.76334-.5230408-2.2115707-.2536163-3.7044373-.7892456-3.7044373-3.2631378,0-1.7999725,1.4696884-3.239502,3.2631035-3.239502h8.8254814v-5.1697693h-8.8254776l-.0000076-.0000153Z" style="fill:#3dbfbe; fill-rule:evenodd;"></path><polygon points="113.010498 131.0123596 121.4530411 160.0313873 129.1647339 160.0313873 137.6073761 131.0123596 132.1180267 131.0123596 125.3088379 154.4164734 118.4995041 131.0123596 113.010498 131.0123596 113.010498 131.0123596" style="fill:#3dbfbe; fill-rule:evenodd;"></polygon><path d="M19.4718647,135.6862793h-.0002079c-3.6016779,0-6.5669651,2.9649506-6.5669651,6.5667572v17.8733978h-5.3225594v-17.8733978c0-.2168121.0064836-.4321747.0180507-.6460876l-.0180507.0269775v-10.8106384h2.0784197l1.9838095,2.4996796c2.0952253-1.8399811,4.8367481-2.9593201,7.8275032-2.9593201v5.3226318h0Z" style="fill:#3dbfbe; fill-rule:evenodd;"></path><path d="M111.1975632,135.6862793h-.000206c-3.6016769,0-6.5669632,2.9649506-6.5669632,6.5667572v17.8733978h-5.3225632v-17.8733978c0-.2168121.006485-.4321747.0180511-.6460876l-.0180511.0269775v-10.8106384h2.0784225l1.9838104,2.4996796c2.0952225-1.8399811,4.8367462-2.9593201,7.827507-2.9593201v5.3226318h-.0000076Z" style="fill:#3dbfbe; fill-rule:evenodd;"></path><path d="M34.8442535,130.3640137c-8.1458073,0-14.7500439,6.6040649-14.7500439,14.7499695,0,8.1458282,6.6042366,14.7498932,14.7500439,14.7498932,2.0310211,0,4.0368729-.4148102,5.8985519-1.2276459,1.5177956-.6625824,2.9161263-1.5802307,4.1303101-2.7063141l.9464035-.8777313-3.6769676-3.6767426-.8769684.7978363c-.3794594.3453827-.7869186.660202-1.2167358.9404449-1.5506668,1.0111694-3.3536758,1.543335-5.2045898,1.543335-7.1103363,0-9.8223801-6.9503632-5.1692924-6.9503632h10.942421v-5.1854706h-10.4478149c-3.8930016,0-4.9300137,3.5579834-3.9879055,6.5999603-.5646935-1.2186584-.8802547-2.5760345-.8802547-4.0072021,0-5.2703857,4.2724113-9.542923,9.5428505-9.542923,1.850914,0,3.653923.5319519,5.2045898,1.5431061.4298172.2802429.8372765.5950928,1.2167358.9404449l.8769684.7978516,3.6769676-3.6767426-.9464035-.8777466c-1.2141838-1.1260834-2.6125145-2.0437317-4.1303101-2.7062836-1.8616791-.8128357-3.8675308-1.2276764-5.8985519-1.2276764h-.0000038Z" style="fill:#3dbfbe; fill-rule:evenodd;"></path><path d="M84.77285,130.3640137c-8.1458054,0-14.7500458,6.6040649-14.7500458,14.7499695,0,8.1458282,6.6042404,14.7498932,14.7500458,14.7498932,2.0310211,0,4.0368729-.4148102,5.8985519-1.2276459,1.5177917-.6625824,2.9161224-1.5802307,4.1303101-2.7063141l.9464035-.8777313-3.6769714-3.6767426-.8769684.7978363c-.3794632.3453827-.7869186.660202-1.2167358.9404449-1.5506668,1.0111694-3.3536758,1.543335-5.2045898,1.543335-7.1103363,0-9.8223801-6.9503632-5.1692963-6.9503632h10.942421v-5.1854706h-10.4478149c-3.8930054,0-4.9300156,3.5579834-3.9879074,6.5999603-.5646973-1.2186584-.8802567-2.5760345-.8802567-4.0072021,0-5.2703857,4.2724152-9.542923,9.5428467-9.542923,1.850914,0,3.653923.5319519,5.2045898,1.5431061.4298172.2802429.8372726.5950928,1.2167358.9404449l.8769684.7978516,3.6769714-3.6767426-.9464035-.8777466c-1.2141876-1.1260834-2.6125183-2.0437317-4.1303101-2.7062836-1.8616791-.8128357-3.8675308-1.2276764-5.8985519-1.2276764h.0000076Z" style="fill:#3dbfbe; fill-rule:evenodd;"></path><path d="M153.2188263,130.3640137c-8.145813,0-14.7500458,6.6040649-14.7500458,14.7499695,0,8.1458282,6.6042328,14.7498932,14.7500458,14.7498932,2.0310211,0,4.0368652-.4148102,5.8985443-1.2276459,1.5177917-.6625824,2.9161224-1.5802307,4.1303101-2.7063141l.9464111-.8777313-3.6769714-3.6767426-.8769684.7978363c-.3794556.3453827-.786911.660202-1.2167358.9404449-1.5506592,1.0111694-3.3536682,1.543335-5.2045898,1.543335-7.1103363,0-9.8223724-6.9503632-5.1692963-6.9503632h10.9424133v-5.1854706h-10.4478149c-3.8930054,0-4.9300079,3.5579834-3.9878998,6.5999603-.5646973-1.2186584-.880249-2.5760345-.880249-4.0072021,0-5.2703857,4.2724152-9.542923,9.5428467-9.542923,1.8509216,0,3.6539307.5319519,5.2045898,1.5431061.4298248.2802429.8372803.5950928,1.2167358.9404449l.8769684.7978516,3.6769714-3.6767426-.9464111-.8777466c-1.2141876-1.1260834-2.6125183-2.0437317-4.1303101-2.7062836-1.8616791-.8128357-3.8675385-1.2276764-5.8985596-1.2276764h.0000153Z" style="fill:#3dbfbe; fill-rule:evenodd;"></path><path d="M292.0849095,53.1112151c0-1.8542001.4633921-3.5927102,1.3908085-5.2155301.9267842-1.6225038,2.2019028-2.9020469,3.8247235-3.8386293,1.6221885-.9362662,3.370182-1.4047151,5.2433482-1.4047145,1.8542007.0000006,3.5927113.4637092,5.215532,1.3908098,1.6221885.9274167,2.9017324,2.2022192,3.8386316,3.8247237.936267,1.6228205,1.4047166,3.3704976,1.4047166,5.2433472,0,1.8267001-.4501162,3.5421353-1.3490843,5.1459897-.8996003,1.6041705-2.1608107,2.888455-3.7829992,3.8525374-1.6228207.9643985-3.3986303,1.4464394-5.3267967,1.4464388-1.9193158-.0000006-3.6907001-.47983-5.3128886-1.4394882-1.6228207-.9596581-2.8859277-2.2414147-3.7899533-3.8455858-.9040256-1.603855-1.3560383-3.3240319-1.3560383-5.1598987ZM293.5452585,53.1112156c0,1.6041708.4033345,3.104031,1.2100034,4.4992648.806669,1.3955498,1.9073043,2.4942886,3.3031703,3.2962164,1.3952338.8022439,2.890353,1.20305,4.4853575,1.2030505,1.6133379.0000005,3.1103536-.4033334,4.4923116-1.2100016,1.3813258-.8066683,2.4775358-1.8984523,3.2892622-3.2753521.8110943-1.3768998,1.2169575-2.8811851,1.2169575-4.5131721,0-1.6133375-.4033345-3.110669-1.2100034-4.4923107-.806669-1.3813256-1.8984537-2.4778518-3.2753541-3.2892623-1.3769005-.8110945-2.8815024-1.2169581-4.5131737-1.2169586-1.6133379-.0000005-3.1109858.4033334-4.4923116,1.2100016-1.3819579.8066683-2.4781679,1.8984523-3.2892622,3.2753521-.8117264,1.3768998-1.2169575,2.8815012-1.2169575,4.5131721ZM306.7857558,50.5799491c0,.7418697-.1972419,1.3977621-.5910936,1.9679933-.3944839.5702312-.9482785.9944275-1.6620162,1.2725889l3.3101243,5.4936933-2.3365583-.0000008-2.8789737-4.9234618-1.8775915-.0000006v4.9234608l-2.0583966-.0000007v-12.3921006l3.6300103.0000012c1.53874.0000005,2.6678237.3015534,3.3866188.9040264.718163.6027891,1.0778766,1.5207226,1.0778766,2.7538005ZM300.7496467,52.6800674l1.5020732.0000005c.7415538.0000002,1.3370728-.192184,1.787189-.5771848.449484-.3846847.6745421-.8736802.6745421-1.4673024,0-.6954041-.1997707-1.1935663-.5980477-1.495119-.3989092-.3012365-1.0291983-.452013-1.8914996-.4520133l-1.4742571-.0000005v3.9916194Z" style="fill:#1c7dc1;"></path></svg> 