<?xml version="1.0" encoding="UTF-8"?> <svg xmlns="http://www.w3.org/2000/svg" xmlns:xlink="http://www.w3.org/1999/xlink" version="1.1" id="Layer_1" x="0px" y="0px" viewBox="0 0 210 55" style="enable-background:new 0 0 210 55;" xml:space="preserve"> <style type="text/css"> .st0{fill:#F2672A;} .st1{fill:#3C5DAA;} .st2{fill:#4665AE;} </style> <g> <path class="st0" d="M34.4,38V9.5c0,0,0-9.5-9.5-9.5H9.5C9.5,0,0,0,0,9.5V38c0,0,0,9.5,9.5,9.5h15.4C24.9,47.5,34.4,47.5,34.4,38 L34.4,38z M28.2,35.6c0,5.4-5.4,5.4-5.4,5.4H12.4c-5.4,0-5.4-5.4-5.4-5.4V11.9c0-5.4,5.4-5.4,5.4-5.4h10.3c5.4,0,5.4,5.4,5.4,5.4 V35.6L28.2,35.6z"></path> <path class="st0" d="M25.1,31.9V15.6c0,0,0-3.7-3.8-3.7h-6.3c0,0-3.8,0-3.8,3.7v16.2c0,0,0,3.7,3.8,3.7h6.3 C21.4,35.6,25.1,35.6,25.1,31.9L25.1,31.9z M23.5,30.4c0,2.4-2.4,2.4-2.4,2.4h-3.6c-2.4,0-2.4-2.4-2.4-2.4V20.2 c0-2.4,2.4-2.4,2.4-2.4h3.6c2.4,0,2.4,2.4,2.4,2.4V30.4L23.5,30.4z"></path> <path class="st1" d="M46.1,33.6h6.6l3.9-21.9h8.3l1-5.4H42.6l-1,5.4h8.3L46.1,33.6L46.1,33.6z M81.9,13c-1.1-0.6-2.6-0.9-4-0.9 c-2.3,0-4.4,0.9-6.1,2.4c-0.6-1.6-2-2.4-3.7-2.4c-1.2,0-2.5,0.4-3.4,0.9l-0.3,0.5l0,4.3l0.4,0.2c0.2-0.1,0.4-0.2,0.6-0.2 c0.6,0,0.8,0.6,0.6,1.6l-2.5,14.3h6.5L72.2,22c0.5-2.8,2.4-4.4,4.8-4.4c0.8,0,1.5,0.2,2.5,0.7l0.4-0.2l2.1-4.6L81.9,13L81.9,13z M102,28.4l-0.4-0.2c-0.2,0.1-0.4,0.2-0.6,0.2c-0.7,0-0.9-0.6-0.7-1.6l1-5.5c0.3-1.3,0.4-2.3,0.4-3.1c0-4.6-4.9-6.2-8.9-6.2 c-4.3,0-7.4,1.3-9.7,3.2l-0.1,0.5l2.4,3h0.5c1.5-1.3,3.4-2,5.4-2c1.7,0,3.5,0.6,3.8,2.2c0.1,0.4,0,1.4-0.1,2l0,0.3 c-1.5-0.5-3-0.8-4.5-0.8c-5.7,0-10.4,2.6-10.4,7.4c0,4.2,3.6,6.1,7.5,6.1c2.6,0,5-0.8,6.9-2.3c0.6,1.5,2,2.3,3.8,2.3 c1.3,0,2.6-0.3,3.6-0.9l0.2-0.5L102,28.4L102,28.4z M89.5,30c-1.5,0-2.9-0.8-2.9-2.4c0-1.9,1.7-3.3,4.4-3.3c1.5,0,2.7,0.4,3.4,0.7 l-0.3,1.4C93.7,28.5,91.6,30,89.5,30L89.5,30L89.5,30z M128,12.6h-6l-7.3,13.3l-1.4-7.6c-0.7-4.2-2-6.2-5.4-6.2 c-1.2,0-2.3,0.3-3.2,0.8l-0.3,0.5l0,4.5l0.4,0.2c0.3-0.2,0.7-0.4,1.1-0.4c1.1,0,1.4,0.8,1.7,2.1l3.1,13.7h5.4l12-20.6L128,12.6 L128,12.6z M148.1,24.7c0.4-0.7,0.7-2,0.7-3.6c0-5.4-3.8-9-9.6-9c-2.7,0-5.2,0.8-7.2,2.2c-3.4,2.3-5.6,6.2-5.6,10.5 c0,6.3,4.8,9.4,10.3,9.4c3.6,0,7.3-1.3,9.6-3.6l0.1-0.5l-2.7-2.9h-0.5c-1.7,1.6-3.6,2.2-5.7,2.2c-3.2,0-4.9-1.6-4.9-4.7L148.1,24.7 L148.1,24.7z M135,17.9c1-0.8,2.2-1.2,3.5-1.2c2.8,0,4.4,1.9,4.1,4.7h-9.6C133.4,19.9,134,18.7,135,17.9L135,17.9L135,17.9z M155.3,34.1c1.3,0,2.6-0.3,3.7-0.9l0.2-0.5l0-4.3l-0.4-0.2c-0.2,0.1-0.4,0.2-0.6,0.2c-0.6,0-0.8-0.5-0.7-1.4l3.8-21.7L160.9,5 l-6.1,0.8L150.8,28C150.1,31.9,151.8,34.1,155.3,34.1L155.3,34.1L155.3,34.1z M183.6,24.7c0.4-0.7,0.7-2,0.7-3.6c0-5.4-3.8-9-9.6-9 c-2.7,0-5.2,0.8-7.2,2.2c-3.4,2.3-5.6,6.2-5.6,10.5c0,6.3,4.8,9.4,10.3,9.4c3.6,0,7.3-1.3,9.6-3.6l0.1-0.5l-2.7-2.9h-0.5 c-1.7,1.6-3.6,2.2-5.7,2.2c-3.2,0-4.9-1.6-4.9-4.7L183.6,24.7L183.6,24.7z M170.5,17.9c1-0.8,2.2-1.2,3.5-1.2 c2.8,0,4.4,1.9,4.1,4.7h-9.6C168.9,19.9,169.5,18.7,170.5,17.9L170.5,17.9L170.5,17.9z M190.1,12.1c-1.2,0-2,0.2-3,0.8l-0.2,0.5 l0.1,4.5l0.4,0.2c0.3-0.2,0.7-0.3,1.1-0.3c0.7,0,1.3,0.2,2,1.3l2.3,4l-9.6,10.1l0.2,0.4h6.4l6-6.5l2,3.6c1.6,2.7,3.3,3.4,5.4,3.4 c1.2,0,2-0.2,3-0.8l0.2-0.5l0-4.5l-0.4-0.2c-0.3,0.2-0.7,0.4-1.1,0.4c-0.7,0-1.3-0.2-2-1.3l-2.3-4L210,13l-0.2-0.4h-6.4l-5.9,6.5 l-2-3.6C193.9,12.8,192.2,12.1,190.1,12.1L190.1,12.1L190.1,12.1z"></path> <path class="st2" d="M44.8,54.6c0,0.1,0.1,0.3,0.2,0.3h1c0.1,0,0.3-0.1,0.3-0.3l1.4-9.7c0-0.1-0.1-0.3-0.2-0.3h-1 c-0.1,0-0.3,0.1-0.3,0.3L44.8,54.6L44.8,54.6z M50.1,54.6c0,0.1,0.1,0.3,0.2,0.3h1c0.1,0,0.3-0.1,0.3-0.3l0.9-7h0l4.5,7.2 c0.1,0.2,0.2,0.2,0.4,0.2h0.1c0.1,0,0.3-0.1,0.3-0.3l1.4-9.9c0-0.1-0.1-0.3-0.2-0.3h-1c-0.1,0-0.3,0.1-0.3,0.3l-0.9,6.9 c0,0,0,0,0,0l-4.4-7.1c-0.2-0.3-0.2-0.3-0.4-0.3h-0.1c-0.1,0-0.3,0.1-0.3,0.3L50.1,54.6L50.1,54.6z M61.3,53.8 c0.2,0.2,1.2,1.2,2.9,1.2c1.9,0,3.2-1.2,3.2-3c0-1.5-1.1-2.3-2.3-3c-0.9-0.5-1.4-1-1.4-1.7c0-0.8,0.6-1.5,1.5-1.5 c0.8,0,1.2,0.2,1.7,0.6c0.2,0.1,0.4,0.1,0.5-0.1l0.4-0.5c0.2-0.2,0.1-0.4,0-0.5c-0.2-0.1-1.1-0.8-2.5-0.8c-2.2,0-3.3,1.6-3.3,2.8 c0,1.5,1,2.3,2.1,3c1,0.6,1.6,1.1,1.6,1.8c0,0.9-0.7,1.6-1.6,1.6c-0.9,0-1.4-0.5-1.9-0.9c-0.2-0.1-0.4-0.1-0.5,0l-0.5,0.6 C61.1,53.6,61.2,53.7,61.3,53.8L61.3,53.8z M70.5,51.3c0,0.2,0,0.4,0,0.6c0,1.9,1.4,3.1,3.1,3.1c2.3,0,3.9-1.5,4.2-3.7l0.9-6.4 c0-0.1-0.1-0.3-0.2-0.3h-1.1c-0.1,0-0.3,0.1-0.3,0.3l-0.9,6.4c-0.2,1.5-1.1,2.3-2.4,2.3c-1.1,0-1.8-0.7-1.8-1.8c0-0.2,0-0.3,0-0.5 l0.9-6.3c0-0.1-0.1-0.3-0.2-0.3h-1.1c-0.1,0-0.3,0.1-0.3,0.3L70.5,51.3L70.5,51.3z M81,54.6c0,0.1,0.1,0.3,0.2,0.3h1 c0.1,0,0.3-0.1,0.3-0.3l0.5-3.7h1.9l1.1,3.7c0.1,0.2,0.1,0.3,0.4,0.3h1c0.2,0,0.3-0.2,0.2-0.4l-1.3-3.7c1.5-0.4,2.4-1.8,2.4-3.4 c0-1.4-1-2.7-2.5-2.7h-3.7c-0.1,0-0.3,0.1-0.3,0.3L81,54.6L81,54.6z M83.2,49.6l0.5-3.5H86c0.7,0,1.3,0.6,1.3,1.5 c0,1.3-0.9,2-1.8,2H83.2L83.2,49.6z M90,54.9h1c0.2,0,0.3-0.1,0.4-0.2l1.1-2h4l0.5,2c0,0.1,0.1,0.2,0.3,0.2h0.9 c0.2,0,0.3-0.2,0.3-0.4l-2.7-9.9c0-0.1-0.1-0.2-0.2-0.2h-0.1c-0.1,0-0.2,0.1-0.2,0.2l-5.5,9.9C89.8,54.7,89.8,54.9,90,54.9L90,54.9 z M93.2,51.4l2.1-4h0.1l1,4H93.2L93.2,51.4z M101.2,54.6c0,0.1,0.1,0.3,0.2,0.3h1c0.1,0,0.3-0.1,0.3-0.3l0.9-7h0l4.5,7.2 c0.1,0.2,0.2,0.2,0.4,0.2h0.1c0.1,0,0.3-0.1,0.3-0.3l1.4-9.9c0-0.1-0.1-0.3-0.2-0.3h-1c-0.1,0-0.3,0.1-0.3,0.3l-0.9,6.9 c0,0,0,0,0,0l-4.4-7.1c-0.2-0.3-0.2-0.3-0.4-0.3h-0.1c-0.1,0-0.3,0.1-0.3,0.3L101.2,54.6L101.2,54.6z M112.7,50.3 c0,2.7,1.7,4.7,4.2,4.7c1.1,0,2.3-0.5,3.3-1.4c0.1-0.1,0.1-0.3,0.1-0.4l-0.6-0.7c-0.1-0.1-0.2-0.2-0.4,0c-0.6,0.5-1.3,1-2.3,1 c-1.6,0-2.6-1.4-2.6-3.1c0-2.3,1.8-4.4,3.8-4.4c0.8,0,1.5,0.3,2,0.9c0.2,0.2,0.3,0.1,0.5,0l0.6-0.5c0.1-0.1,0.1-0.3,0-0.4 c-0.8-0.9-1.7-1.4-3-1.4C115.3,44.4,112.7,47,112.7,50.3L112.7,50.3z M123.2,54.6c0,0.1,0.1,0.3,0.2,0.3h5.3c0.1,0,0.3-0.1,0.3-0.3 l0.1-0.8c0-0.1-0.1-0.3-0.2-0.3h-4.1l0.4-3.2h3.4c0.1,0,0.3-0.1,0.3-0.3l0.1-0.8c0-0.1-0.1-0.3-0.2-0.3h-3.4l0.4-3h4.1 c0.1,0,0.3-0.1,0.3-0.3l0.1-0.8c0-0.1-0.1-0.3-0.2-0.3h-5.3c-0.1,0-0.3,0.1-0.3,0.3L123.2,54.6L123.2,54.6z M136.2,53.8 c0.2,0.2,1.2,1.2,2.9,1.2c1.9,0,3.2-1.2,3.2-3c0-1.5-1.1-2.3-2.3-3c-0.9-0.5-1.4-1-1.4-1.7c0-0.8,0.6-1.5,1.5-1.5 c0.8,0,1.2,0.2,1.7,0.6c0.2,0.1,0.4,0.1,0.5-0.1l0.4-0.5c0.2-0.2,0.1-0.4,0-0.5c-0.2-0.1-1.1-0.8-2.5-0.8c-2.2,0-3.3,1.6-3.3,2.8 c0,1.5,1,2.3,2.1,3c1,0.6,1.6,1.1,1.6,1.8c0,0.9-0.7,1.6-1.6,1.6c-0.9,0-1.4-0.5-1.9-0.9c-0.2-0.1-0.4-0.1-0.5,0l-0.5,0.6 C136,53.6,136.1,53.7,136.2,53.8L136.2,53.8z M145,54.6c0,0.1,0.1,0.3,0.2,0.3h5.3c0.1,0,0.3-0.1,0.3-0.3l0.1-0.8 c0-0.1-0.1-0.3-0.2-0.3h-4.1l0.4-3.2h3.4c0.1,0,0.2-0.1,0.3-0.3l0.1-0.8c0-0.1-0.1-0.3-0.2-0.3h-3.4l0.4-3h4.1 c0.1,0,0.3-0.1,0.3-0.3l0.1-0.8c0-0.1-0.1-0.3-0.2-0.3h-5.3c-0.1,0-0.3,0.1-0.3,0.3L145,54.6L145,54.6z M154,54.6 c0,0.1,0.1,0.3,0.2,0.3h1c0.1,0,0.3-0.1,0.3-0.3l0.5-3.7h1.9l1.1,3.7c0.1,0.2,0.1,0.3,0.4,0.3h1c0.2,0,0.3-0.2,0.2-0.4l-1.3-3.7 c1.5-0.4,2.4-1.8,2.4-3.4c0-1.4-1-2.7-2.5-2.7h-3.7c-0.1,0-0.3,0.1-0.3,0.3L154,54.6L154,54.6z M156.2,49.6l0.5-3.5h2.2 c0.7,0,1.3,0.6,1.3,1.5c0,1.3-0.9,2-1.8,2H156.2L156.2,49.6z M166.8,54.8c0,0.1,0.1,0.2,0.2,0.2h0.1c0.1,0,0.2-0.1,0.2-0.2l5.5-9.9 c0.1-0.2,0-0.4-0.2-0.4h-1.2c-0.1,0-0.2,0.1-0.3,0.2l-3.8,7h-0.1l-1.7-7c0-0.1-0.1-0.2-0.2-0.2h-1.1c-0.2,0-0.3,0.2-0.2,0.4 L166.8,54.8L166.8,54.8z M174.1,54.6c0,0.1,0.1,0.3,0.2,0.3h1c0.1,0,0.3-0.1,0.3-0.3l1.4-9.7c0-0.1-0.1-0.3-0.2-0.3h-1 c-0.1,0-0.3,0.1-0.3,0.3L174.1,54.6L174.1,54.6z M179.4,50.3c0,2.7,1.7,4.7,4.2,4.7c1.1,0,2.3-0.5,3.3-1.4c0.1-0.1,0.1-0.3,0.1-0.4 l-0.6-0.7c-0.1-0.1-0.2-0.2-0.4,0c-0.6,0.5-1.3,1-2.3,1c-1.6,0-2.6-1.4-2.6-3.1c0-2.3,1.8-4.4,3.8-4.4c0.8,0,1.5,0.3,2,0.9 c0.2,0.2,0.3,0.1,0.5,0l0.6-0.5c0.1-0.1,0.1-0.3,0-0.4c-0.8-0.9-1.7-1.4-3-1.4C181.9,44.4,179.4,47,179.4,50.3L179.4,50.3z M189.8,54.6c0,0.1,0.1,0.3,0.2,0.3h5.3c0.1,0,0.3-0.1,0.3-0.3l0.1-0.8c0-0.1-0.1-0.3-0.2-0.3h-4.1l0.4-3.2h3.4 c0.1,0,0.3-0.1,0.3-0.3l0.1-0.8c0-0.1-0.1-0.3-0.2-0.3h-3.4l0.4-3h4.1c0.1,0,0.3-0.1,0.3-0.3l0.1-0.8c0-0.1-0.1-0.3-0.2-0.3h-5.3 c-0.1,0-0.3,0.1-0.3,0.3L189.8,54.6L189.8,54.6z M198.4,53.8c0.2,0.2,1.2,1.2,2.9,1.2c1.9,0,3.2-1.2,3.2-3c0-1.5-1.1-2.3-2.3-3 c-0.9-0.5-1.4-1-1.4-1.7c0-0.8,0.6-1.5,1.5-1.5c0.8,0,1.2,0.2,1.7,0.6c0.2,0.1,0.4,0.1,0.5-0.1l0.4-0.5c0.2-0.2,0.1-0.4,0-0.5 c-0.2-0.1-1.1-0.8-2.5-0.8c-2.2,0-3.3,1.6-3.3,2.8c0,1.5,1,2.3,2.1,3c1,0.6,1.6,1.1,1.6,1.8c0,0.9-0.7,1.6-1.6,1.6 c-0.9,0-1.4-0.5-1.9-0.9c-0.2-0.1-0.4-0.1-0.5,0l-0.5,0.6C198.2,53.6,198.3,53.7,198.4,53.8L198.4,53.8z"></path> </g> </svg> 